<?xml version="1.0" standalone="no"?>
<!DOCTYPE svg PUBLIC "-//W3C//DTD SVG 20010904//EN"
 "http://www.w3.org/TR/2001/REC-SVG-20010904/DTD/svg10.dtd">
<svg version="1.0" xmlns="http://www.w3.org/2000/svg"
 width="812.000000pt" height="812.000000pt" viewBox="0 0 812.000000 812.000000"
 preserveAspectRatio="xMidYMid meet">
<metadata>
Created by potrace 1.11, written by Peter Selinger 2001-2013
</metadata>
<g transform="translate(0.000000,812.000000) scale(0.100000,-0.100000)"
fill="#000000" stroke="none">
<path d="M5986 7802 c-2 -1 -30 -5 -62 -7 -122 -10 -188 -17 -194 -20 -3 -1
-34 -6 -70 -10 -36 -4 -85 -11 -110 -16 -25 -6 -57 -12 -72 -14 -15 -2 -35 -6
-45 -9 -10 -3 -34 -8 -53 -11 -19 -3 -53 -11 -75 -17 -22 -6 -45 -12 -51 -14
-47 -9 -155 -74 -204 -123 -86 -85 -124 -170 -147 -321 -2 -19 -6 -222 -8
-450 -2 -228 -6 -433 -9 -455 -11 -87 -89 -307 -116 -325 -4 -3 -13 -16 -20
-29 -16 -31 -22 -38 -90 -109 -56 -59 -152 -142 -165 -142 -3 0 -21 -11 -38
-24 -27 -19 -181 -99 -197 -101 -3 -1 -21 -8 -42 -17 -41 -18 -233 -78 -298
-93 -23 -5 -89 -18 -105 -21 -11 -1 -29 -5 -41 -8 -18 -4 -56 -9 -154 -21
-111 -14 -394 -18 -1394 -18 -854 0 -1163 -3 -1206 -12 -164 -34 -248 -130
-248 -283 0 -41 4 -88 10 -106 5 -17 11 -38 13 -47 2 -9 18 -46 36 -83 59
-121 186 -224 314 -256 6 -1 20 -6 31 -11 23 -8 86 -19 139 -24 17 -2 47 -6
68 -9 59 -9 98 -15 157 -21 30 -3 71 -7 90 -9 19 -3 62 -7 95 -11 33 -3 74 -8
90 -10 17 -2 55 -7 85 -10 124 -13 143 -16 151 -21 5 -3 9 0 9 6 0 6 5 8 12 4
6 -4 36 -9 66 -11 63 -4 86 -14 108 -49 16 -23 15 -26 -2 -45 -25 -28 -96 -63
-169 -84 -33 -10 -64 -20 -70 -23 -5 -4 -16 -8 -22 -9 -20 -5 -37 -9 -53 -16
-8 -3 -53 -17 -100 -32 -47 -15 -92 -29 -100 -32 -53 -21 -178 -64 -195 -67
-11 -2 -94 -30 -185 -61 -91 -31 -169 -57 -175 -59 -16 -3 -808 -266 -825
-273 -8 -3 -19 -7 -25 -8 -37 -9 -149 -57 -182 -78 -141 -89 -178 -264 -90
-437 24 -48 103 -134 152 -165 36 -23 125 -66 125 -60 0 2 16 -3 35 -11 54
-22 177 -29 350 -19 75 4 199 15 222 19 10 2 47 7 83 12 36 4 67 8 70 9 3 1
28 5 55 10 48 7 59 9 107 20 12 2 40 7 63 10 22 4 56 10 75 15 61 15 164 39
198 45 18 3 65 16 105 28 50 16 82 21 105 16 53 -11 60 -24 37 -67 -14 -26
-52 -58 -135 -113 -63 -42 -119 -81 -125 -86 -9 -8 -32 -24 -170 -116 -22 -15
-49 -34 -60 -43 -11 -9 -51 -36 -90 -62 -38 -25 -72 -48 -75 -52 -3 -3 -49
-35 -103 -70 -53 -36 -97 -68 -97 -72 0 -5 -4 -8 -10 -8 -8 0 -98 -57 -110
-71 -3 -3 -23 -16 -45 -29 -22 -13 -42 -27 -45 -30 -5 -6 -225 -156 -257 -175
-10 -5 -22 -15 -29 -20 -6 -6 -42 -31 -80 -55 -38 -25 -71 -47 -74 -50 -3 -4
-31 -23 -62 -44 -122 -80 -194 -164 -205 -241 -18 -115 16 -215 103 -302 70
-70 148 -108 289 -139 106 -24 257 -23 380 1 101 20 382 141 528 227 26 15 54
28 62 28 8 0 15 5 15 10 0 6 4 10 10 10 5 0 33 15 62 32 56 35 79 48 153 87
25 14 45 28 45 33 0 4 6 8 13 8 11 0 223 133 237 149 5 6 15 9 55 17 11 2 34
1 52 -2 56 -11 57 -17 58 -654 2 -504 6 -660 21 -720 10 -41 30 -90 36 -90 5
0 8 -6 8 -12 1 -30 94 -112 142 -126 30 -8 215 -7 253 2 39 9 170 72 197 94
36 30 98 92 98 97 0 3 11 18 25 33 14 15 43 64 65 110 53 109 82 217 96 352 2
19 4 364 5 766 l1 731 52 26 c28 15 87 46 131 70 218 117 286 153 353 189 68
36 162 86 277 148 28 14 104 55 170 90 66 35 161 86 210 113 50 26 106 55 125
65 19 9 37 20 38 25 2 4 12 7 23 7 10 0 19 4 19 9 0 5 12 14 28 20 15 6 68 32
117 59 50 27 144 77 210 112 66 34 124 66 129 70 7 7 86 -30 216 -102 25 -14
79 -43 120 -65 78 -42 172 -93 275 -148 33 -17 110 -58 170 -90 61 -32 112
-62 113 -67 2 -4 11 -8 21 -8 9 0 21 -4 27 -9 5 -5 41 -26 79 -46 92 -49 207
-111 273 -146 126 -69 163 -89 257 -140 165 -89 237 -127 292 -156 l51 -26 1
-616 c1 -647 5 -903 16 -961 3 -19 8 -44 10 -55 7 -38 37 -130 46 -141 5 -6 7
-13 4 -16 -3 -3 1 -11 10 -18 8 -7 15 -19 15 -26 0 -38 182 -244 216 -244 7 0
14 -4 16 -9 4 -11 128 -74 128 -65 0 4 6 2 13 -3 12 -10 46 -21 97 -32 14 -3
75 -5 135 -6 103 0 113 2 162 29 108 59 151 136 151 263 0 45 -4 100 -9 122
-8 35 -13 72 -24 191 -18 186 -23 445 -11 630 9 143 14 201 32 335 4 28 8 61
9 75 5 45 20 141 30 190 3 14 8 39 11 55 2 17 7 41 9 55 3 14 7 36 10 50 3 14
10 45 15 70 5 25 16 77 25 115 19 77 23 97 29 122 2 10 20 79 40 153 19 74 38
147 41 163 12 61 14 74 20 112 20 129 26 370 12 470 -4 22 -9 58 -12 80 -3 23
-8 52 -11 65 -3 14 -7 39 -10 55 -9 52 -70 253 -94 310 -7 17 -42 115 -80 225
-18 52 -62 212 -65 235 -1 6 -7 35 -13 65 -13 56 -19 93 -27 165 -3 22 -8 56
-11 75 -6 35 -8 52 -18 165 -4 33 -8 76 -10 95 -3 19 -8 71 -11 115 -3 44 -8
103 -10 130 -23 291 -41 751 -50 1335 -6 338 -12 527 -19 538 -2 4 -7 27 -11
50 -12 81 -51 174 -104 245 -35 46 -151 147 -151 130 0 -4 -4 -3 -8 4 -6 9
-89 52 -112 58 -3 0 -27 8 -55 18 -49 17 -252 64 -310 73 -16 2 -41 6 -55 9
-122 21 -278 38 -357 39 -29 1 -53 3 -53 6 0 6 -459 8 -464 2z"/>
<path d="M4531 1795 c-4 -5 -7 -260 -7 -565 l1 -555 440 0 440 0 0 558 c0 353
-3 561 -9 565 -18 10 -857 8 -865 -3z"/>
</g>
</svg>
