<svg xmlns="http://www.w3.org/2000/svg" viewBox="0 0 153.01 126.69"><defs><style>.cls-1{fill:#01ccd2;}.cls-2{fill:#bcea4c;}.cls-3{fill:#00a4ae;}.cls-4{fill:#156486;}</style></defs><title>Asset 1</title><g id="Layer_2" data-name="Layer 2"><g id="Layer_1-2" data-name="Layer 1"><g id="COLORS_1" data-name="COLORS 1"><path class="cls-1" d="M2.18,50.46C-.65,33.65-.5,17,4.57,0,25,15.74,47,26.62,71.29,32.4,117.13-.26,135.24-3.76,153,17.35c-15.55.86-21.67,11.61-26.26,23.95C116.51,62.58,104.58,79.55,92.52,84c-6.5,3.57-13.26,4.1-22.72.08,5.18-3.83,9.48-6.35,13-9.72,7.63-7.38,17.37-14.27,10-27.26C88.35,38.63,79.87,36.37,71.82,33,51.63,51.54,30.36,65.15,2.18,50.46Z"/><path class="cls-2" d="M126.76,41.3C124.55,91.92,97,118,41.52,122.2c-13.82,1.05-27.58,3-41.52,4.49A84.84,84.84,0,0,1,21.51,89.9H22C25.64,93,29,96.59,33,99.06c34.47,21.09,78.8-3.6,89.73-49.84l0,.06A85.34,85.34,0,0,1,126.76,41.3Z"/><path class="cls-3" d="M22,89.91h-.45C11,78.76,5,65.41,2.18,50.46c28.18,14.69,48.92.45,69.12-18.06,8.05,3.34,17.06,6.23,21.47,14.73-4.2,6.61-10.12,11.26-16.83,15.08C58.33,72.21,36.94,74.8,22,89.91Z"/><path class="cls-4" d="M21.51,89.9c15-15.11,36.82-17.69,54.42-27.69,6.71-3.81,12.64-8.47,16.83-15.08,7.37,13-2.37,19.88-10,27.26-3.49,3.37-7.79,5.9-13,9.72,9.47,4,17.62,1.38,24.13-2.19,13.41-7.36,26.25-28.21,32.83-40.62-5.07,19.11-14.22,36.24-25.63,47.75-19.22,19.4-44.84,24.68-68.11,10C27.07,95.31,25.18,93,21.51,89.9Z"/></g></g></g></svg>