<?xml version="1.0" encoding="utf-8"?>
<!-- Generator: Adobe Illustrator 21.0.2, SVG Export Plug-In . SVG Version: 6.00 Build 0)  -->
<svg version="1.1" id="Layer_1" xmlns="http://www.w3.org/2000/svg" xmlns:xlink="http://www.w3.org/1999/xlink" x="0px" y="0px"
	 viewBox="0 0 202.5 186.9" style="enable-background:new 0 0 202.5 186.9;" xml:space="preserve">
<style type="text/css">
	.st0{fill:url(#SVGID_1_);}
	.st1{fill:url(#SVGID_2_);}
</style>
<g>
	<linearGradient id="SVGID_1_" gradientUnits="userSpaceOnUse" x1="101.2502" y1="186.9418" x2="101.2502" y2="-1.818989e-12">
		<stop  offset="0.2865" style="stop-color:#BCEA4C"/>
		<stop  offset="0.6622" style="stop-color:#01CCD2"/>
		<stop  offset="1" style="stop-color:#00A4AE"/>
	</linearGradient>
	<path class="st0" d="M170.8,132.2c-15.7-8.5-31.1-16.7-46.9-25.2c-15.6,8.3-31.3,16.6-47.3,25.2c0,11.4,0,22.7,0,34
		c0,4.8-0.8,9.3-3.2,13.4c-1.9,3.1-4.4,5.4-7.9,6.6c-7.4,2.5-12.2-0.8-12.4-8.6c-0.2-8.5,0-17-0.1-25.5c0-1.8,0.4-3.7-0.7-5.2
		c-2.5-1.1-3.9,0.6-5.5,1.6c-6.6,4.2-13.4,8.1-20.6,11.3c-5.5,2.5-11.2,3.1-17.1,1.3c-3.9-1.2-6.8-3.6-7.6-7.8
		c-0.7-4.1,1.8-6.4,4.9-8.5c12-8.1,23.9-16.3,35.9-24.6c1.4-1,3.4-1.6,3.9-3.9c-1.7-1.6-3.4-0.3-5,0.1c-8.8,2.1-17.6,3.8-26.6,4
		c-3.6,0.1-7-0.6-9.9-2.7c-3.2-2.3-4.9-5.5-4.5-9.5c0.4-3.8,3.3-5.6,6.6-6.7c14.4-4.8,28.8-9.5,43.1-14.3c2.3-0.8,4.8-1.1,6.5-3.1
		c-0.8-2.4-2.8-1.8-4.3-2c-6.9-0.8-13.9-1.4-20.8-2.4c-5.2-0.8-9.4-3.3-11.3-8.6c-2.5-6.9,0.6-11.6,8-11.7c17.8-0.1,35.7,0,53.5,0
		c8.6,0,17-1.2,24.9-4.5c10.4-4.4,16.2-11.9,15.7-23.6c-0.2-4.8-0.1-9.7,0-14.5c0.2-8.3,3.6-12.7,11.7-14.4
		c14.4-3.1,28.8-3.2,43.1,0.1c10.7,2.4,14.5,7.3,14.6,18.2c0.3,19,0.4,38,2.9,56.9c0.7,5.5,2.3,10.7,4.3,15.9
		c4.1,10.1,4.9,20.4,2,30.8c-4.9,17.7-7.5,35.4-4.5,53.8c1,6-3.7,9.7-9.7,8.8c-9.5-1.4-15.4-8.5-15.6-19c-0.2-9.7-0.1-19.3-0.1-29
		C170.8,136.8,170.8,134.8,170.8,132.2z"/>
	<linearGradient id="SVGID_2_" gradientUnits="userSpaceOnUse" x1="123.7708" y1="186.8205" x2="123.7708" y2="-0.1203">
		<stop  offset="0.2865" style="stop-color:#BCEA4C"/>
		<stop  offset="0.6622" style="stop-color:#01CCD2"/>
		<stop  offset="1" style="stop-color:#00A4AE"/>
	</linearGradient>
	<rect x="112.8" y="149.7" class="st1" width="22" height="28.1"/>
</g>
</svg>
